<svg xmlns="http://www.w3.org/2000/svg" viewBox="0 0 760 250" width="760" height="250" font-family="ui-monospace,SFMono-Regular,Menlo,Consolas,monospace">
<rect x="1" y="1" width="758" height="248" rx="14" fill="#0d1117" stroke="#30363d"/>
<circle cx="28" cy="30" r="6" fill="#ff5f56"/>
<circle cx="50" cy="30" r="6" fill="#ffbd2e"/>
<circle cx="72" cy="30" r="6" fill="#27c93f"/>
<text x="104" y="36" font-size="16" font-weight="700" fill="#e6edf3">Cursor+</text><text x="178" y="36" font-size="14" fill="#8b949e">keeps your Mac awake</text>
<line x1="0" y1="56" x2="760" y2="56" stroke="#30363d"/>
<line x1="86" y1="176" x2="606" y2="120" stroke="#6e7681" stroke-width="1.5" stroke-dasharray="2 6" opacity="0.55"/>
<text x="276.0" y="172.0" font-size="11.5" fill="#6e7681">a jiggler goes straight</text>
<path d="M 86.0 176.0 C 100.0 162.7 140.0 95.0 170.0 96.0 C 200.0 97.0 232.3 180.7 266.0 182.0 C 299.7 183.3 338.3 105.0 372.0 104.0 C 405.7 103.0 429.0 173.3 468.0 176.0 C 507.0 178.7 576.0 119.0 606.0 120.0 C 636.0 121.0 656.3 167.0 648.0 182.0 C 639.7 197.0 604.0 207.7 556.0 210.0 C 508.0 212.3 420.0 196.0 360.0 196.0 C 300.0 196.0 241.7 213.3 196.0 210.0 C 150.3 206.7 104.3 181.7 86.0 176.0" fill="none" stroke="#58a6ff" stroke-width="2" opacity="0.28"/>
<text x="150" y="86" font-size="11.5" fill="#58a6ff" opacity="0.85">Cursor+ curves, varies speed, trembles</text>
<rect x="546" y="91" width="120" height="58" rx="8" fill="#388bfd" fill-opacity="0.10" stroke="#388bfd" stroke-width="1.5" stroke-dasharray="5 4"/>
<text x="606" y="84" font-size="11.5" fill="#388bfd" text-anchor="middle">click zone</text>
<circle cx="606" cy="120" r="3" fill="none" stroke="#3fb950" stroke-width="2" opacity="0">
  <animate attributeName="r" dur="7.2s" repeatCount="indefinite" values="3;3;22;28" keyTimes="0;0.5;0.56;0.61"/>
  <animate attributeName="opacity" dur="7.2s" repeatCount="indefinite" values="0;0;0.95;0" keyTimes="0;0.5;0.53;0.61"/>
</circle>
<g>
  <animateMotion dur="7.2s" repeatCount="indefinite" calcMode="linear" path="M 86.0 176.0 C 100.0 162.7 140.0 95.0 170.0 96.0 C 200.0 97.0 232.3 180.7 266.0 182.0 C 299.7 183.3 338.3 105.0 372.0 104.0 C 405.7 103.0 429.0 173.3 468.0 176.0 C 507.0 178.7 576.0 119.0 606.0 120.0 C 636.0 121.0 656.3 167.0 648.0 182.0 C 639.7 197.0 604.0 207.7 556.0 210.0 C 508.0 212.3 420.0 196.0 360.0 196.0 C 300.0 196.0 241.7 213.3 196.0 210.0 C 150.3 206.7 104.3 181.7 86.0 176.0"/>
  <g>
    <animateTransform attributeName="transform" type="translate" dur="0.13s" repeatCount="indefinite" values="0 0; 0.7 -0.5; -0.6 0.4; 0.3 0.6; 0 0"/>
    <path d="M0 0 L0 17 L4.3 13 L7 19 L9.4 18 L6.6 12.2 L12 12 Z" fill="#f0f6fc" stroke="#0b1016" stroke-width="1" stroke-linejoin="round"/>
  </g>
</g>
<text x="26" y="222" font-size="13" fill="#6e7681">moves like a hand, not a metronome  &#183;  pauses when you take over  &#183;  Esc Esc Esc to stop</text>
</svg>
