<svg xmlns="http://www.w3.org/2000/svg" viewBox="0 0 760 270" width="760" height="270" font-family="ui-monospace,SFMono-Regular,Menlo,Consolas,monospace">
<rect x="1" y="1" width="758" height="268" rx="14" fill="#0d1117" stroke="#30363d" stroke-width="1"/>
<text x="24" y="34" font-size="16" font-weight="700" fill="#e6edf3">Motion presets: where the speed lives</text>
<line x1="24" y1="46" x2="736" y2="46" stroke="#21262d" stroke-width="1"/>
<text x="104.0" y="66" font-size="13" font-weight="700" fill="#e6edf3" text-anchor="middle">Calm</text>
<line x1="38.0" y1="156" x2="170.0" y2="156" stroke="#21262d" stroke-width="1"/>
<rect x="40.0" y="98.0" width="16" height="58.0" rx="2" fill="#39c5cf"/>
<text x="48.0" y="95.0" font-size="8.5" fill="#6e7681" text-anchor="middle">5</text>
<rect x="68.0" y="109.6" width="16" height="46.4" rx="2" fill="#5fbaa4"/>
<text x="76.0" y="106.6" font-size="8.5" fill="#6e7681" text-anchor="middle">4</text>
<rect x="96.0" y="132.8" width="16" height="23.2" rx="2" fill="#86af79"/>
<text x="104.0" y="129.8" font-size="8.5" fill="#6e7681" text-anchor="middle">2</text>
<rect x="124.0" y="144.4" width="16" height="11.6" rx="2" fill="#aca44d"/>
<text x="132.0" y="141.4" font-size="8.5" fill="#6e7681" text-anchor="middle">1</text>
<rect x="152.0" y="150.2" width="16" height="5.8" rx="2" fill="#d29922"/>
<text x="160.0" y="147.2" font-size="8.5" fill="#6e7681" text-anchor="middle">0.5</text>
<text x="104.0" y="168" font-size="11" fill="#8b949e" text-anchor="middle">slow &#8594; fast</text>
<text x="288.0" y="66" font-size="13" font-weight="700" fill="#e6edf3" text-anchor="middle">Balanced</text>
<text x="288.0" y="79" font-size="10" fill="#d29922" text-anchor="middle">&#9733; default</text>
<line x1="222.0" y1="156" x2="354.0" y2="156" stroke="#21262d" stroke-width="1"/>
<rect x="224.0" y="127.0" width="16" height="29.0" rx="2" fill="#39c5cf"/>
<text x="232.0" y="124.0" font-size="8.5" fill="#6e7681" text-anchor="middle">2</text>
<rect x="252.0" y="112.5" width="16" height="43.5" rx="2" fill="#5fbaa4"/>
<text x="260.0" y="109.5" font-size="8.5" fill="#6e7681" text-anchor="middle">3</text>
<rect x="280.0" y="98.0" width="16" height="58.0" rx="2" fill="#86af79"/>
<text x="288.0" y="95.0" font-size="8.5" fill="#6e7681" text-anchor="middle">4</text>
<rect x="308.0" y="127.0" width="16" height="29.0" rx="2" fill="#aca44d"/>
<text x="316.0" y="124.0" font-size="8.5" fill="#6e7681" text-anchor="middle">2</text>
<rect x="336.0" y="141.5" width="16" height="14.5" rx="2" fill="#d29922"/>
<text x="344.0" y="138.5" font-size="8.5" fill="#6e7681" text-anchor="middle">1</text>
<text x="288.0" y="168" font-size="11" fill="#8b949e" text-anchor="middle">slow &#8594; fast</text>
<text x="472.0" y="66" font-size="13" font-weight="700" fill="#e6edf3" text-anchor="middle">Lively</text>
<line x1="406.0" y1="156" x2="538.0" y2="156" stroke="#21262d" stroke-width="1"/>
<rect x="408.0" y="141.5" width="16" height="14.5" rx="2" fill="#39c5cf"/>
<text x="416.0" y="138.5" font-size="8.5" fill="#6e7681" text-anchor="middle">1</text>
<rect x="436.0" y="127.0" width="16" height="29.0" rx="2" fill="#5fbaa4"/>
<text x="444.0" y="124.0" font-size="8.5" fill="#6e7681" text-anchor="middle">2</text>
<rect x="464.0" y="112.5" width="16" height="43.5" rx="2" fill="#86af79"/>
<text x="472.0" y="109.5" font-size="8.5" fill="#6e7681" text-anchor="middle">3</text>
<rect x="492.0" y="98.0" width="16" height="58.0" rx="2" fill="#aca44d"/>
<text x="500.0" y="95.0" font-size="8.5" fill="#6e7681" text-anchor="middle">4</text>
<rect x="520.0" y="127.0" width="16" height="29.0" rx="2" fill="#d29922"/>
<text x="528.0" y="124.0" font-size="8.5" fill="#6e7681" text-anchor="middle">2</text>
<text x="472.0" y="168" font-size="11" fill="#8b949e" text-anchor="middle">slow &#8594; fast</text>
<text x="656.0" y="66" font-size="13" font-weight="700" fill="#e6edf3" text-anchor="middle">Wild</text>
<line x1="590.0" y1="156" x2="722.0" y2="156" stroke="#21262d" stroke-width="1"/>
<rect x="592.0" y="150.2" width="16" height="5.8" rx="2" fill="#39c5cf"/>
<text x="600.0" y="147.2" font-size="8.5" fill="#6e7681" text-anchor="middle">0.5</text>
<rect x="620.0" y="144.4" width="16" height="11.6" rx="2" fill="#5fbaa4"/>
<text x="628.0" y="141.4" font-size="8.5" fill="#6e7681" text-anchor="middle">1</text>
<rect x="648.0" y="132.8" width="16" height="23.2" rx="2" fill="#86af79"/>
<text x="656.0" y="129.8" font-size="8.5" fill="#6e7681" text-anchor="middle">2</text>
<rect x="676.0" y="121.2" width="16" height="34.8" rx="2" fill="#aca44d"/>
<text x="684.0" y="118.2" font-size="8.5" fill="#6e7681" text-anchor="middle">3</text>
<rect x="704.0" y="98.0" width="16" height="58.0" rx="2" fill="#d29922"/>
<text x="712.0" y="95.0" font-size="8.5" fill="#6e7681" text-anchor="middle">5</text>
<text x="656.0" y="168" font-size="11" fill="#8b949e" text-anchor="middle">slow &#8594; fast</text>
<rect x="24.0" y="187.0" width="11" height="11" rx="2" fill="#39c5cf"/>
<text x="41.0" y="196.0" font-size="10.5" fill="#8b949e">very slow <tspan fill="#6e7681">80-150</tspan></text>
<rect x="173.0" y="187.0" width="11" height="11" rx="2" fill="#5fbaa4"/>
<text x="190.0" y="196.0" font-size="10.5" fill="#8b949e">slow <tspan fill="#6e7681">150-350</tspan></text>
<rect x="295.6" y="187.0" width="11" height="11" rx="2" fill="#86af79"/>
<text x="312.6" y="196.0" font-size="10.5" fill="#8b949e">normal <tspan fill="#6e7681">350-700</tspan></text>
<rect x="431.4" y="187.0" width="11" height="11" rx="2" fill="#aca44d"/>
<text x="448.4" y="196.0" font-size="10.5" fill="#8b949e">fast <tspan fill="#6e7681">700-1400</tspan></text>
<rect x="560.6" y="187.0" width="11" height="11" rx="2" fill="#d29922"/>
<text x="577.6" y="196.0" font-size="10.5" fill="#8b949e">very fast <tspan fill="#6e7681">1400-3000 px/s</tspan></text>
<text x="24" y="240" font-size="11.5" fill="#6e7681">Calm leans slow and gentle. Wild leans fast. Balanced sits in the middle, the recommended default.</text>
</svg>